<?xml version="1.0" encoding="iso-8859-1"?>
<!-- Generator: Adobe Illustrator 18.0.0, SVG Export Plug-In . SVG Version: 6.00 Build 0)  -->
<!DOCTYPE svg PUBLIC "-//W3C//DTD SVG 1.1//EN" "http://www.w3.org/Graphics/SVG/1.1/DTD/svg11.dtd">
<svg version="1.1" id="Capa_1" xmlns="http://www.w3.org/2000/svg" xmlns:xlink="http://www.w3.org/1999/xlink" x="0px" y="0px"
	 viewBox="0 0 317.752 317.752" style="enable-background:new 0 0 317.752 317.752;" xml:space="preserve">
<g>
	<path d="M191.136,92.59c-12.238,0-23.731,4.804-32.26,12.969c-8.528-8.165-20.021-12.969-32.26-12.969
		c-25.713,0-46.632,20.919-46.632,46.632c0,20.365,7.74,39.195,23.662,57.568c9.966,11.5,32.266,27.699,44.672,36.332
		c3.157,2.197,6.857,3.296,10.558,3.296c3.699,0,7.399-1.099,10.555-3.295c12.402-8.628,34.697-24.822,44.676-36.333
		c15.922-18.374,23.661-37.203,23.661-57.568C237.768,113.51,216.849,92.59,191.136,92.59z"/>
	<path d="M286.527,0H31.225C18.685,0,8.519,10.166,8.519,22.707v272.339c0,12.54,10.166,22.707,22.707,22.707h255.301
		c12.54,0,22.707-10.166,22.707-22.707V22.707C309.233,10.166,299.067,0,286.527,0z M158.876,274.646
		c-63.985,0-115.77-51.778-115.77-115.77c0-63.985,51.778-115.77,115.77-115.77c63.986,0,115.77,51.779,115.77,115.77
		C274.646,222.862,222.867,274.646,158.876,274.646z"/>
</g>
<g>
</g>
<g>
</g>
<g>
</g>
<g>
</g>
<g>
</g>
<g>
</g>
<g>
</g>
<g>
</g>
<g>
</g>
<g>
</g>
<g>
</g>
<g>
</g>
<g>
</g>
<g>
</g>
<g>
</g>
</svg>
