<?xml version="1.0" standalone="no"?>
<!DOCTYPE svg PUBLIC "-//W3C//DTD SVG 20010904//EN"
 "http://www.w3.org/TR/2001/REC-SVG-20010904/DTD/svg10.dtd">
<svg version="1.0" xmlns="http://www.w3.org/2000/svg"
 width="400.000000pt" height="400.000000pt" viewBox="0 0 400.000000 400.000000"
 preserveAspectRatio="xMidYMid meet">

<g transform="translate(0.000000,400.000000) scale(0.100000,-0.100000)"
fill="#587D71" stroke="none">
<path d="M1795 3990 c-11 -5 -42 -9 -69 -9 -95 -2 -398 -74 -501 -120 -11 -5
-38 -17 -60 -26 -409 -176 -749 -501 -948 -904 -63 -127 -90 -191 -85 -196 9
-10 119 127 148 186 68 135 191 308 305 428 259 274 601 464 975 541 148 31
442 39 596 16 392 -58 717 -217 1004 -492 194 -187 331 -384 435 -629 9 -22
21 -49 26 -60 37 -86 90 -307 104 -430 9 -73 29 -112 51 -94 19 16 18 75 -6
205 -133 743 -680 1340 -1396 1524 -201 52 -522 85 -579 60z"/>
<path d="M1503 3804 c-74 -36 -118 -94 -157 -207 -36 -105 -67 -152 -136 -202
-68 -50 -141 -72 -217 -66 -21 2 -15 26 13 52 50 46 76 105 82 181 l5 71 -49
-27 c-27 -15 -60 -41 -73 -58 -38 -47 -75 -168 -52 -168 6 0 11 6 11 13 0 40
35 123 67 158 45 49 73 52 73 7 -1 -70 -92 -205 -132 -195 -11 3 -22 -2 -28
-14 -6 -10 -35 -30 -65 -44 -89 -43 -177 -158 -241 -316 -15 -35 -31 -67 -38
-71 -6 -4 -36 -13 -66 -19 -109 -23 -226 -102 -319 -218 -98 -120 -139 -232
-156 -429 -4 -40 -9 -89 -12 -110 -10 -75 -5 -230 11 -352 61 -468 249 -854
570 -1176 172 -172 310 -269 531 -375 284 -135 577 -190 910 -169 301 20 601
115 834 264 84 55 111 83 91 96 -25 16 -40 12 -124 -39 -219 -132 -440 -211
-696 -251 -36 -5 -142 -10 -237 -10 -140 0 -196 5 -305 25 -208 38 -458 131
-603 224 -22 14 -47 31 -56 36 -158 99 -312 240 -443 403 -299 373 -449 857
-415 1341 20 285 80 464 197 579 60 59 85 68 72 25 -8 -29 -35 -102 -50 -138
-15 -34 -48 -156 -64 -236 -49 -243 -44 -524 14 -782 52 -231 187 -510 340
-702 62 -78 238 -249 315 -306 387 -290 863 -398 1335 -302 137 27 274 76 416
148 78 40 157 84 176 98 44 34 50 34 108 -2 70 -43 132 -61 208 -61 78 0 132
21 201 79 25 21 57 44 70 51 24 12 24 13 -30 41 -138 73 -140 74 -226 74 -46
0 -83 4 -83 8 0 5 20 29 43 54 l44 46 71 -28 c63 -25 80 -27 159 -23 106 5
137 20 211 97 30 31 65 63 79 72 l25 16 -28 7 c-16 4 -46 16 -69 26 -94 42
-192 49 -260 18 -18 -8 -29 -8 -36 -1 -8 8 -1 28 26 72 41 65 42 66 95 51 61
-18 174 -13 227 10 63 27 232 200 196 200 -13 0 -55 9 -95 20 -85 23 -163 16
-235 -22 -57 -30 -70 -17 -45 42 l18 44 95 1 c66 1 107 7 137 19 53 23 125
102 148 164 10 26 25 58 35 72 l17 25 -88 3 c-106 4 -155 -8 -213 -52 -55 -42
-70 -33 -52 27 13 45 41 67 86 67 84 0 191 62 232 133 21 35 72 206 64 213 -7
6 -179 -25 -212 -40 -46 -20 -93 -61 -106 -93 -5 -13 -13 -23 -18 -23 -21 0
-19 35 5 107 45 135 43 261 -7 368 -11 22 -46 73 -78 114 -36 46 -68 99 -81
135 -33 92 -133 279 -205 380 -35 50 -100 129 -145 176 -99 104 -89 77 15 -40
125 -140 236 -320 309 -500 31 -75 33 -123 8 -182 -26 -61 -45 -164 -37 -208
4 -26 2 -39 -7 -42 -7 -3 -101 -6 -208 -7 -335 -3 -593 -45 -890 -144 -104
-34 -286 -109 -298 -122 -4 -4 4 -15 18 -24 14 -9 60 -43 103 -76 122 -94 121
-93 160 -71 92 52 314 158 401 191 229 85 498 153 676 170 l65 6 30 -57 c16
-32 46 -79 67 -106 32 -40 38 -55 38 -95 0 -44 -13 -84 -23 -73 -3 3 -14 23
-25 45 -22 44 -113 135 -135 135 -7 0 -32 16 -55 36 l-42 36 0 -36 c0 -19 -5
-38 -10 -41 -6 -4 -76 -22 -156 -40 -168 -40 -332 -93 -489 -160 -102 -43
-223 -104 -252 -128 -10 -7 8 -31 69 -96 45 -47 108 -119 141 -158 33 -40 62
-73 64 -73 3 0 42 27 87 59 154 112 475 289 497 275 16 -9 9 -47 -19 -104 -24
-49 -34 -59 -97 -91 -132 -67 -385 -233 -385 -252 0 -5 19 -41 43 -80 60 -100
61 -103 32 -145 -14 -20 -25 -42 -25 -49 0 -19 -20 -26 -36 -12 -9 7 -25 31
-36 53 -32 63 -155 243 -221 325 -90 110 -162 186 -265 277 -297 265 -613 442
-1017 569 -138 44 -151 51 -133 73 11 13 10 14 -9 3 -44 -23 -101 41 -89 100
3 16 1 31 -4 34 -17 11 -15 -92 2 -112 15 -19 -10 -46 -36 -38 -92 26 -336 55
-468 55 l-108 0 0 -39 0 -39 78 -6 c337 -30 703 -161 995 -357 129 -87 185
-134 320 -267 278 -274 473 -614 561 -977 33 -132 37 -145 49 -145 41 0 284
117 368 177 26 18 52 33 58 33 16 0 51 -60 51 -87 0 -39 -236 -169 -413 -228
-193 -65 -263 -76 -482 -82 -177 -4 -213 -2 -315 17 -250 47 -428 119 -638
258 -386 257 -657 675 -742 1146 -16 85 -20 154 -20 310 0 270 28 428 112 646
73 188 88 200 239 200 105 0 125 -12 114 -69 -8 -43 -29 -59 -68 -52 -5 1 -6
-3 -3 -8 3 -5 15 -7 25 -4 25 6 61 -30 61 -62 0 -69 -56 -133 -105 -121 -44
11 -47 106 -4 152 13 13 18 24 11 24 -6 0 -20 -13 -32 -30 -12 -16 -18 -30
-14 -30 3 0 2 -6 -3 -12 -6 -7 -9 -30 -8 -51 6 -104 117 -102 159 4 14 35 15
50 6 93 -7 28 -10 74 -8 101 3 49 4 50 37 53 54 5 74 -5 100 -49 13 -23 41
-61 63 -85 22 -24 38 -49 35 -56 -2 -7 -25 -19 -51 -26 -54 -14 -121 -71 -142
-120 -8 -19 -12 -37 -9 -40 9 -9 81 15 123 42 24 15 57 47 74 71 18 25 38 45
45 45 7 0 34 -13 60 -29 31 -19 69 -31 108 -36 104 -11 102 -10 109 -71 4 -39
1 -69 -10 -105 -16 -48 -16 -53 2 -96 21 -50 52 -78 99 -87 28 -6 28 -5 -8 14
-48 26 -77 73 -77 126 0 64 50 96 92 57 10 -9 18 -11 18 -5 0 15 -40 42 -62
42 -23 0 -38 30 -38 74 0 33 2 35 56 51 51 15 58 15 80 0 13 -8 24 -21 24 -28
0 -29 73 -97 136 -128 35 -18 67 -29 70 -26 4 3 3 22 0 41 -8 44 -67 106 -123
131 -60 26 -58 51 5 60 99 14 194 75 251 161 17 26 31 51 31 56 0 12 -81 9
-120 -5 -80 -29 -126 -69 -182 -157 -26 -42 -176 -85 -278 -81 -68 3 -148 29
-207 68 -78 51 -169 160 -150 179 3 3 32 8 64 10 32 3 84 9 117 15 l59 11 41
-41 c45 -44 142 -89 158 -73 17 17 -21 72 -70 103 -26 16 -47 35 -47 42 0 6
19 22 42 35 39 22 44 22 72 8 48 -25 161 -37 242 -26 39 6 75 13 80 16 12 7
-41 51 -85 69 -44 18 -192 20 -250 3 -22 -7 -59 -26 -81 -43 -22 -16 -59 -39
-83 -49 -58 -26 -70 -12 -38 45 18 31 22 49 16 59 -8 12 -10 11 -10 -5 -1 -27
-52 -99 -73 -103 -31 -6 -22 68 16 124 37 57 67 70 67 30 0 -14 4 -26 9 -26 5
0 8 8 6 18 -2 9 -4 27 -4 40 -1 32 -22 27 -63 -15 -46 -47 -68 -99 -68 -159
l0 -47 -167 5 c-171 5 -223 15 -223 43 0 9 11 38 25 65 l25 50 88 0 c63 0 98
5 127 19 42 19 93 67 82 77 -15 16 -127 16 -173 0 -58 -20 -54 -20 -54 2 0 21
83 104 125 125 17 8 76 18 131 21 l102 7 18 -26 c64 -93 133 -145 212 -159 26
-4 32 -2 32 12 0 9 -15 40 -32 67 -26 39 -47 56 -95 80 -39 19 -61 36 -60 45
2 16 131 64 151 57 6 -3 22 -31 35 -63 36 -88 97 -169 155 -207 86 -57 169
-76 159 -37 -6 23 -7 24 -32 9 -24 -15 -101 26 -165 87 -43 41 -106 147 -106
179 0 26 35 17 100 -26 64 -43 127 -114 161 -181 25 -49 34 -49 14 -1 -24 58
-90 139 -150 184 -58 44 -67 59 -36 59 35 0 97 -28 174 -78 100 -65 167 -90
264 -98 59 -4 82 -2 97 8 17 14 16 17 -27 54 -60 53 -127 74 -236 74 -60 0
-93 5 -107 14 -23 17 -27 13 69 64 43 23 98 58 123 79 50 42 137 151 129 163
-6 10 -89 -12 -146 -39 -63 -30 -153 -112 -186 -171 -15 -28 -33 -52 -39 -54
-6 -2 -35 3 -65 10 -31 9 -80 13 -116 11 -84 -6 -93 2 -62 50 14 21 30 50 36
65 7 14 24 34 38 45 111 78 172 150 190 226 9 35 -11 36 -82 1z m51 -26 c-19
-61 -112 -162 -162 -175 -31 -7 -35 -1 -22 33 29 76 119 164 168 164 20 0 22
-4 16 -22z m332 -165 c-15 -48 -213 -203 -258 -203 -39 0 -12 49 70 124 62 57
80 68 137 88 55 18 59 18 51 -9z m-25 -312 c57 -22 89 -47 89 -69 0 -12 -12
-14 -69 -9 -92 8 -211 58 -211 89 0 16 139 8 191 -11z m-652 -30 c65 -34 139
-132 99 -131 -30 1 -96 40 -130 78 -61 67 -46 92 31 53z m-299 -131 c23 -14 1
-41 -46 -57 -44 -16 -146 -14 -151 3 -4 13 58 42 117 53 61 12 63 12 80 1z
m640 -138 c25 -10 45 -24 45 -32 0 -12 -19 -16 -95 -18 -96 -3 -170 12 -178
36 -11 33 152 43 228 14z m-283 -158 c34 -26 40 -38 23 -49 -19 -12 -120 54
-120 78 0 16 62 -2 97 -29z m518 -24 c9 -14 -91 -117 -140 -145 -22 -13 -55
-26 -72 -30 -30 -6 -33 -5 -33 18 0 37 90 132 143 150 50 18 93 21 102 7z
m-845 -204 c0 -14 -66 -79 -97 -95 -29 -15 -63 -14 -63 2 0 19 60 74 105 96
41 20 55 19 55 -3z m599 -70 c30 -16 101 -90 101 -106 0 -18 -31 -10 -75 20
-43 30 -85 75 -85 91 0 13 28 11 59 -5z m2032 -80 c56 -73 73 -138 67 -255 -6
-100 -29 -181 -54 -181 -7 0 -24 15 -38 33 -93 122 -117 287 -61 420 21 49 39
46 86 -17z m322 -405 c23 -9 24 -12 16 -57 -11 -60 -50 -126 -94 -160 -56 -42
-174 -70 -190 -44 -9 15 21 111 47 150 34 49 91 91 145 106 26 7 49 13 50 13
1 1 13 -3 26 -8z m-460 -101 c76 -69 97 -118 97 -222 0 -103 -8 -118 -47 -98
-44 23 -117 101 -141 151 -24 49 -30 147 -12 193 14 39 42 32 103 -24z m-55
-271 c25 -28 69 -66 98 -84 52 -34 53 -34 42 -67 -19 -59 -38 -98 -47 -98 -5
0 -14 21 -20 48 -15 59 -62 133 -106 167 -38 29 -59 60 -50 75 13 21 39 8 83
-41z m499 -12 c9 -10 -17 -73 -49 -122 -40 -61 -111 -96 -198 -98 -86 -3 -93
8 -51 89 53 103 129 148 234 140 32 -2 61 -7 64 -9z m-535 -74 c63 -65 83
-117 83 -208 -1 -60 -6 -92 -22 -127 -12 -27 -26 -48 -30 -48 -11 0 -64 57
-85 91 -23 36 -48 126 -48 169 0 47 38 160 54 160 7 0 28 -17 48 -37z m441
-278 c22 -9 22 -13 -8 -57 -32 -48 -101 -95 -156 -107 -87 -20 -175 -8 -186
26 -5 16 60 87 105 115 68 42 172 52 245 23z m-631 -22 c77 -83 92 -216 37
-342 -29 -68 -52 -66 -96 8 -39 65 -57 147 -48 209 9 60 54 152 74 152 4 0 19
-12 33 -27z m175 -195 c-19 -35 -45 -72 -56 -82 l-21 -19 0 106 c0 85 3 109
17 122 15 15 19 14 56 -23 l40 -40 -36 -64z m-387 -60 c32 -34 53 -122 48
-192 -5 -61 -35 -133 -77 -186 -27 -34 -49 -20 -79 51 -19 45 -22 67 -19 135
5 83 18 120 65 182 29 38 35 39 62 10z m638 -73 c23 -9 42 -22 42 -29 0 -21
-85 -99 -130 -119 -58 -27 -157 -28 -222 -3 -57 22 -61 40 -15 82 97 91 211
115 325 69z m-475 -79 c15 -19 27 -39 27 -45 0 -13 -117 -131 -131 -131 -7 0
-9 8 -4 23 16 55 25 94 25 121 0 30 24 66 44 66 6 0 23 -16 39 -34z m172 -230
c90 -42 90 -68 -2 -122 -40 -23 -62 -28 -133 -31 -78 -4 -90 -1 -140 25 -37
20 -55 35 -55 48 0 22 79 79 129 93 61 18 148 12 201 -13z"/>
<path d="M2235 3394 l-15 -24 54 0 c47 0 57 -4 75 -27 20 -24 20 -27 5 -45
-11 -11 -31 -18 -55 -18 -48 0 -92 -16 -87 -33 3 -8 46 -14 142 -18 109 -5
141 -9 154 -23 29 -28 4 -51 -59 -53 -123 -6 -159 -13 -159 -34 0 -24 20 -29
155 -32 106 -2 110 -3 113 -25 7 -50 -3 -52 -245 -52 l-224 0 3 -22 c3 -22 9
-23 100 -28 103 -5 122 -14 116 -51 -3 -21 -11 -25 -68 -34 -48 -8 -66 -15
-68 -27 -2 -12 5 -19 22 -24 20 -5 26 -12 26 -35 0 -31 -3 -33 -92 -44 -25 -3
-52 -13 -58 -20 -7 -8 -19 -15 -26 -15 -19 0 -18 -14 6 -60 11 -22 20 -48 20
-60 0 -19 6 -20 104 -20 101 0 131 9 109 31 -6 6 -42 13 -81 16 -79 7 -100 20
-82 52 9 19 20 21 89 21 111 0 143 8 139 34 -2 16 -13 22 -46 28 -52 9 -62 14
-62 37 0 36 20 41 176 41 126 0 154 -3 165 -16 19 -23 0 -46 -49 -62 -30 -10
-42 -19 -42 -33 0 -10 6 -19 13 -20 6 -1 48 -3 92 -5 140 -6 177 -21 137 -58
-14 -12 -46 -15 -147 -17 -135 -1 -168 -9 -159 -34 5 -13 54 -15 362 -13 l356
3 12 46 c10 40 9 54 -6 95 -52 147 -133 277 -245 392 -173 180 -376 281 -612
306 -36 3 -44 0 -58 -20z"/>
<path d="M1045 2490 c-3 -5 -1 -10 5 -10 6 0 22 -11 35 -25 30 -30 32 -23 4
16 -21 30 -34 36 -44 19z"/>
<path d="M985 2440 c-3 -5 -2 -10 4 -10 5 0 13 5 16 10 3 6 2 10 -4 10 -5 0
-13 -4 -16 -10z"/>
<path d="M1400 2398 c0 -4 5 -19 11 -35 6 -15 11 -43 11 -60 0 -18 4 -33 9
-33 12 0 11 67 -1 75 -6 4 -8 9 -6 13 2 4 -2 16 -10 27 -8 10 -14 16 -14 13z"/>
<path d="M1508 2269 c-21 -12 -24 -49 -6 -67 17 -17 499 -17 516 0 16 16 15
53 0 66 -18 13 -487 15 -510 1z"/>
<path d="M2158 2273 c-31 -3 -39 -9 -44 -29 -4 -17 -1 -31 10 -42 15 -15 25
-13 131 23 63 21 121 38 130 38 8 0 15 3 15 7 0 7 -177 9 -242 3z"/>
<path d="M1406 2244 c-9 -23 -2 -28 13 -10 7 8 8 17 3 20 -6 3 -13 -1 -16 -10z"/>
<path d="M350 2031 l0 -70 58 -16 c679 -187 1209 -744 1363 -1433 l23 -103
135 6 c135 6 266 21 287 34 15 8 -43 241 -92 369 -142 369 -389 684 -719 918
-117 83 -288 175 -410 221 -22 8 -49 19 -60 23 -104 45 -354 101 -512 115
l-73 6 0 -70z"/>
<path d="M371 1758 c36 -231 125 -456 260 -659 78 -116 269 -314 380 -394 110
-79 282 -169 404 -210 106 -36 235 -67 235 -56 0 25 -55 213 -80 277 -104 262
-208 422 -399 617 -161 165 -310 273 -505 366 -86 42 -271 111 -295 111 -5 0
-4 -24 0 -52z"/>
</g>
</svg>
